<svg xmlns="http://www.w3.org/2000/svg" width="1011" height="360.001"><path data-name="404" d="M505.5 360.001a224.527 224.527 0 0 1-32.437-2.469 161.557 161.557 0 0 1-28.312-6.907 124.6 124.6 0 0 1-24.187-11.344 108.789 108.789 0 0 1-20.062-15.782 128.344 128.344 0 0 1-15.968-19.437 130.412 130.412 0 0 1-11.906-22.312 147.971 147.971 0 0 1-7.844-25.188A182.878 182.878 0 0 1 361 228.5c-.664-17.909-1-34.227-1-48.5 0-14.605.336-31.428 1-50a163.569 163.569 0 0 1 5.688-35.437 138.217 138.217 0 0 1 13.061-31.311 116.413 116.413 0 0 1 9.313-13.86 115.37 115.37 0 0 1 11.188-12.328 121.768 121.768 0 0 1 13.063-10.8 135.739 135.739 0 0 1 14.937-9.265 127.867 127.867 0 0 1 16.735-7.437 147.387 147.387 0 0 1 18.454-5.313 177.093 177.093 0 0 1 20.172-3.188 218.76 218.76 0 0 1 21.891-1.063 219.228 219.228 0 0 1 21.906 1.063 178.3 178.3 0 0 1 20.219 3.188 149.051 149.051 0 0 1 18.532 5.313A129.927 129.927 0 0 1 583 17.001a136.288 136.288 0 0 1 15.047 9.265 121.655 121.655 0 0 1 13.141 10.8 114.756 114.756 0 0 1 11.234 12.328 115.24 115.24 0 0 1 9.328 13.86 138.211 138.211 0 0 1 13.061 31.311 163.575 163.575 0 0 1 5.687 35.437c.666 9.28 1 26.1 1 50 0 23.236-.337 39.554-1 48.5a182.756 182.756 0 0 1-3.78 28.062 147.946 147.946 0 0 1-7.844 25.188 130.416 130.416 0 0 1-11.907 22.312A128.409 128.409 0 0 1 611 323.499a108.269 108.269 0 0 1-20.093 15.782 124.885 124.885 0 0 1-24.281 11.344 162.911 162.911 0 0 1-28.469 6.907 227.4 227.4 0 0 1-32.657 2.469zM482.9 249.37a8.638 8.638 0 0 0-6.328 2.565 8.634 8.634 0 0 0-2.563 6.326v40.7a8.08 8.08 0 0 0 2.563 6.155 8.964 8.964 0 0 0 6.328 2.394h45.828a8.964 8.964 0 0 0 6.328-2.395 8.076 8.076 0 0 0 2.565-6.155v-40.7a8.626 8.626 0 0 0-2.566-6.326 8.634 8.634 0 0 0-6.327-2.565zm23.255-133.723a31.487 31.487 0 0 1 10.047 1.539 25.425 25.425 0 0 1 8.251 4.618 17.722 17.722 0 0 1 5.258 7.1 18.985 18.985 0 0 1 1.068 8.978 20.407 20.407 0 0 1-1.624 6.882 30.928 30.928 0 0 1-4.189 6.968 178.889 178.889 0 0 1-16.073 17.271 220.21 220.21 0 0 0-22.748 25.307 58.705 58.705 0 0 0-6.883 11.97 59.8 59.8 0 0 0-3.891 13.339 55.672 55.672 0 0 0-.341 7.181 6.591 6.591 0 0 0 2.052 4.788 6.59 6.59 0 0 0 4.788 2.052h50.615a8.518 8.518 0 0 0 5.986-2.052 28.31 28.31 0 0 0 4.959-7.181 40.189 40.189 0 0 1 2.393-8.55 60.664 60.664 0 0 1 7.867-13.338c3.173-4.08 7.891-9.6 14.021-16.417 9.762-10.67 17.356-20.45 22.573-29.069a52.641 52.641 0 0 0 5.9-14.108 65.4 65.4 0 0 0 1.966-16.33 49.513 49.513 0 0 0-2.137-14.278A61.051 61.051 0 0 0 589.6 98.21a53.542 53.542 0 0 0-11.328-12.953 84.374 84.374 0 0 0-16.886-10.816 88.2 88.2 0 0 0-22.615-7.31 153.562 153.562 0 0 0-28.514-2.437 144.5 144.5 0 0 0-28.644 2.693 102.9 102.9 0 0 0-24.367 8.079 95.828 95.828 0 0 0-19.494 12.355 71.481 71.481 0 0 0-14.022 15.517 75.57 75.57 0 0 0-8.635 17.443 64.3 64.3 0 0 0-3.335 18.126 9.859 9.859 0 0 0 2.224 6.669 7.161 7.161 0 0 0 5.636 2.564h44.479c2.944 0 5.241-.69 6.828-2.052a16.179 16.179 0 0 0 4.1-6.155 38.862 38.862 0 0 1 4.125-10.624 26.648 26.648 0 0 1 6.562-7.588 27.056 27.056 0 0 1 9-4.553 40.284 40.284 0 0 1 11.436-1.521zM941 355h-65a12.058 12.058 0 0 1-8.75-3.749 12.048 12.048 0 0 1-3.75-8.752v-55h-155a12.056 12.056 0 0 1-8.752-3.751 12.058 12.058 0 0 1-3.75-8.75V224.5a21.754 21.754 0 0 1 1.375-7.5 30.662 30.662 0 0 1 4.127-7.5l145-196a22.919 22.919 0 0 1 8.125-6.375A24.688 24.688 0 0 1 865 5.001h76a13.1 13.1 0 0 1 9.248 3.5 11.806 11.806 0 0 1 3.75 9V210h44a14.607 14.607 0 0 1 5.375.938 11.254 11.254 0 0 1 4.125 2.813 12.474 12.474 0 0 1 3.5 8.75v52.5a12.48 12.48 0 0 1-3.5 8.75 11.808 11.808 0 0 1-9 3.751H954v55a11.806 11.806 0 0 1-3.75 9A13.1 13.1 0 0 1 941 355zm-75.5-254L785 213.5h80.5V101zM245 355h-65a12.053 12.053 0 0 1-8.752-3.749 12.053 12.053 0 0 1-3.748-8.752v-55h-155a12.035 12.035 0 0 1-8.75-3.751 12.044 12.044 0 0 1-3.751-8.75V224.5a21.758 21.758 0 0 1 1.375-7.5 30.655 30.655 0 0 1 4.125-7.5l145-196a22.925 22.925 0 0 1 8.126-6.375A24.684 24.684 0 0 1 169 5.001h76a13.106 13.106 0 0 1 9.248 3.5 11.811 11.811 0 0 1 3.75 9V210h44a14.6 14.6 0 0 1 5.375.938 11.251 11.251 0 0 1 4.123 2.813 12.465 12.465 0 0 1 3.5 8.75v52.5a12.472 12.472 0 0 1-3.5 8.75 11.808 11.808 0 0 1-9 3.751H258v55a11.811 11.811 0 0 1-3.75 9A13.106 13.106 0 0 1 245 355zm-75.5-254L89 213.5h80.5V101z"/></svg>