<svg xmlns="http://www.w3.org/2000/svg" width="48.215" height="30"><path data-name="Behance" d="M43.541 4.245h-12.08v-3h12.081v3zM23.418 16.553a7.933 7.933 0 0 1 1.169 4.394 8.752 8.752 0 0 1-1.333 4.787 8.3 8.3 0 0 1-2.122 2.356 8.2 8.2 0 0 1-3.386 1.506 20.931 20.931 0 0 1-4.236.405H0v-30h14.488c3.652.059 6.241 1.117 7.77 3.2a7.634 7.634 0 0 1 1.372 4.581 6.678 6.678 0 0 1-1.386 4.417 7.073 7.073 0 0 1-2.284 1.707 6.661 6.661 0 0 1 3.458 2.647zm-16.5-4.723h6.348a6.015 6.015 0 0 0 3.171-.744 2.835 2.835 0 0 0 1.217-2.638 2.685 2.685 0 0 0-1.611-2.768 11.333 11.333 0 0 0-3.541-.469H6.919zm11.348 8.689a3.217 3.217 0 0 0-1.908-3.214 7.518 7.518 0 0 0-3-.508H6.919v7.995h6.34a7.044 7.044 0 0 0 3.038-.526 3.782 3.782 0 0 0 1.969-3.749zm29.757-4.881a28.219 28.219 0 0 1 .185 4.267H32.563q.129 3.239 2.246 4.534a5.657 5.657 0 0 0 3.1.807 4.364 4.364 0 0 0 4.272-2.46h5.735a6.985 6.985 0 0 1-2.082 3.884q-2.884 3.134-8.082 3.137a11.729 11.729 0 0 1-7.57-2.645q-3.274-2.653-3.282-8.609 0-5.592 2.957-8.567a10.364 10.364 0 0 1 7.688-2.98 12.252 12.252 0 0 1 5.053 1 8.7 8.7 0 0 1 3.709 3.182 10.607 10.607 0 0 1 1.717 4.448zm-5.645.56a4.693 4.693 0 0 0-1.5-3.4 4.9 4.9 0 0 0-3.33-1.163 4.455 4.455 0 0 0-3.348 1.234 5.792 5.792 0 0 0-1.5 3.327h9.682z" fill="#fff"/></svg>