<svg xmlns="http://www.w3.org/2000/svg" xmlns:xlink="http://www.w3.org/1999/xlink" width="39.067" height="39.067"><defs><clipPath id="b"><circle data-name="Ellipse 3" cx="19.534" cy="19.534" r="19.534"/></clipPath><linearGradient id="c" x1=".045" y1=".621" x2=".369" y2=".337" gradientUnits="objectBoundingBox"><stop offset="0" stop-color="#a52714" stop-opacity=".6"/><stop offset=".66" stop-color="#a52714" stop-opacity="0"/></linearGradient><linearGradient id="d" x1=".839" y1=".878" x2=".363" y2=".664" gradientUnits="objectBoundingBox"><stop offset="0" stop-color="#055524" stop-opacity=".4"/><stop offset=".33" stop-color="#055524" stop-opacity="0"/></linearGradient><clipPath id="e"><path data-name="Path 26" d="M8 59.889h18.595l8.63-8.63V44.8h-15.38L8 24.48z" transform="translate(-8 -24.48)"/></clipPath><linearGradient id="f" x1=".326" y1="-.048" x2=".486" y2=".454" gradientUnits="objectBoundingBox"><stop offset="0" stop-color="#ea6100" stop-opacity=".302"/><stop offset=".66" stop-color="#ea6100" stop-opacity="0"/></linearGradient><clipPath id="g"><path data-name="Path 31" d="M92.709 56l7.691 13.318-8.63 15.095h20.473V56z" transform="translate(-91.77 -56)"/></clipPath><radialGradient id="a" cx="95.152" cy="55.988" r="69.842" gradientTransform="matrix(.267 0 0 .267 -.621 -.008)" gradientUnits="userSpaceOnUse"><stop offset="0" stop-color="#3e2723" stop-opacity=".2"/><stop offset="1" stop-color="#3e2723" stop-opacity="0"/></radialGradient><clipPath id="h"><path data-name="Path 35" d="M21.97 8v8.954l8.744 15.019L38.4 18.655h19.536V8z" transform="translate(-21.97 -8)"/></clipPath><radialGradient id="i" cx="21.95" cy="48.466" r="14.682" gradientTransform="matrix(1.18 0 0 1.18 .004 -.003)" xlink:href="#a"/><radialGradient id="j" cx="92.72" cy="103.57" r="9.683" gradientTransform="translate(-.903 2.151) scale(2.014)" gradientUnits="userSpaceOnUse"><stop offset="0" stop-color="#263238" stop-opacity=".2"/><stop offset="1" stop-color="#263238" stop-opacity="0"/></radialGradient><radialGradient id="k" cx="5.835" cy="5.33" r="39.234" gradientUnits="userSpaceOnUse"><stop offset="0" stop-color="#fff" stop-opacity=".102"/><stop offset="1" stop-color="#fff" stop-opacity="0"/></radialGradient></defs><g data-name="Group 9" clip-path="url(#b)"><path data-name="Path 18" d="M3.101 0v23.973h8.744l7.686-13.318h19.536V0z" fill="#db4437"/><path data-name="Path 19" d="M21.97 8v23.973h8.744L38.4 18.655h19.536V8z" transform="translate(-18.869 -8)" fill="url(#c)"/></g><g data-name="Group 10" clip-path="url(#b)"><path data-name="Path 20" d="M12.055 23.892L3.214 8.732l-.129.222 8.777 15.05z" fill="rgba(62,39,35,0.15)"/></g><g data-name="Group 11" clip-path="url(#b)"><path data-name="Path 21" d="M0 39.067h18.595l8.63-8.63v-6.459h-15.38L0 3.658z" fill="#0f9d58"/><path data-name="Path 22" d="M8 59.889h18.595l8.63-8.63V44.8h-15.38L8 24.48z" transform="translate(-8 -20.822)" fill="url(#d)"/></g><g data-name="Group 12" clip-path="url(#b)"><path data-name="Path 23" d="M27.045 24.269l-.184-.107-8.522 14.906h.255l8.457-14.792z" fill="rgba(38,50,56,0.15)"/></g><g data-name="Group 14" clip-path="url(#b)"><g data-name="Group 13" transform="translate(0 3.658)" clip-path="url(#e)"><path data-name="Path 24" d="M19.534 6.997l7.691 13.318-8.63 15.095h20.473V6.997z" fill="#ffcd40"/><path data-name="Path 25" d="M92.709 56l7.691 13.318-8.63 15.095h20.473V56z" transform="translate(-73.175 -49.003)" fill="url(#f)"/></g></g><g data-name="Group 15" clip-path="url(#b)"><path data-name="Path 27" d="M19.534 10.655l7.691 13.318-8.63 15.095h20.473V10.655z" fill="#ffcd40"/><path data-name="Path 28" d="M92.709 56l7.691 13.318-8.63 15.095h20.473V56z" transform="translate(-73.175 -45.345)" fill="url(#f)"/></g><g data-name="Group 17" clip-path="url(#b)"><g data-name="Group 16" transform="translate(18.595 10.655)" clip-path="url(#g)"><path data-name="Path 29" d="M-15.494-10.655v23.973h8.744L.936 0h19.536v-10.655z" fill="#db4437"/><path data-name="Path 30" d="M21.97 8v23.973h8.744L38.4 18.655h19.536V8z" transform="translate(-37.464 -18.655)" fill="url(#c)"/></g></g><g data-name="Group 18" clip-path="url(#b)"><path data-name="Path 32" d="M96 56v4.65L113.4 56z" transform="translate(-76.466 -45.345)" fill="url(#a)"/></g><g data-name="Group 20" clip-path="url(#b)"><g data-name="Group 19" transform="translate(3.101)" clip-path="url(#h)"><path data-name="Path 33" d="M-3.101 39.067h18.595l8.63-8.63v-6.459H8.744L-3.101 3.658z" fill="#0f9d58"/><path data-name="Path 34" d="M8 59.889h18.595l8.63-8.63V44.8h-15.38L8 24.48z" transform="translate(-11.101 -20.822)" fill="url(#d)"/></g></g><g data-name="Group 21" clip-path="url(#b)"><path data-name="Path 36" d="M21.97 48.45l12.708 12.706-3.964 2.289z" transform="translate(-18.869 -39.471)" fill="url(#i)"/></g><g data-name="Group 22" clip-path="url(#b)"><path data-name="Path 37" d="M91.83 123.048l4.653-17.358 3.964 2.289z" transform="translate(-73.222 -84.005)" fill="url(#j)"/></g><g data-name="Group 23" clip-path="url(#b)"><circle data-name="Ellipse 14" cx="8.879" cy="8.879" r="8.879" transform="translate(10.655 10.655)" fill="#f1f1f1"/><circle data-name="Ellipse 15" cx="7.103" cy="7.103" r="7.103" transform="translate(12.431 12.431)" fill="#4285f4"/></g><g data-name="Group 24" clip-path="url(#b)"><path data-name="Path 38" d="M19.534 10.433a8.879 8.879 0 0 0-8.879 8.879v.221a8.879 8.879 0 0 1 8.879-8.879h19.534v-.221z" fill="rgba(62,39,35,0.2)"/><path data-name="Path 39" d="M27.214 23.978a8.865 8.865 0 0 1-15.363 0h-.009L0 3.658v.22l11.845 20.317h.009a8.865 8.865 0 0 0 15.363 0h.011v-.217h-.013z" fill="rgba(255,255,255,0.1)"/><path data-name="Path 40" d="M19.756 10.655c-.038 0-.073 0-.111.007a8.873 8.873 0 0 1 0 17.745c.038 0 .073.007.111.007a8.879 8.879 0 1 0 0-17.758z" fill="#3e2723" opacity=".1"/><path data-name="Path 41" d="M27.303 24.268a8.849 8.849 0 0 0 .777-7.114 8.781 8.781 0 0 1-.859 6.812v.009l-8.626 15.099h.257l8.455-14.8z" fill="rgba(255,255,255,0.2)"/></g><g data-name="Group 25" clip-path="url(#b)"><path data-name="Path 42" d="M19.534.222a19.533 19.533 0 0 1 19.531 19.423v-.111a19.534 19.534 0 1 0-39.065 0v.111A19.533 19.533 0 0 1 19.534.222z" fill="rgba(255,255,255,0.2)"/><path data-name="Path 43" d="M19.534 38.846a19.533 19.533 0 0 0 19.531-19.423v.111a19.534 19.534 0 1 1-39.065 0v-.111a19.533 19.533 0 0 0 19.531 19.423z" fill="rgba(62,39,35,0.15)"/></g><circle data-name="Ellipse 19" cx="19.534" cy="19.534" r="19.534" fill="url(#k)"/></svg>