<svg xmlns="http://www.w3.org/2000/svg" width="30" height="30"><path data-name="Path 11" d="M27.988 7.658a15.127 15.127 0 0 0-5.459-5.6A14.4 14.4 0 0 0 15 0a14.4 14.4 0 0 0-7.529 2.062 15.126 15.126 0 0 0-5.459 5.6A15.331 15.331 0 0 0 0 15.376a15.2 15.2 0 0 0 2.861 9.039 14.719 14.719 0 0 0 7.392 5.556.857.857 0 0 0 .781-.14.792.792 0 0 0 .254-.6l-.01-1.081q-.01-1.021-.01-1.782l-.449.08a5.593 5.593 0 0 1-1.084.07 8.063 8.063 0 0 1-1.357-.14 3 3 0 0 1-1.309-.6 2.539 2.539 0 0 1-.859-1.231l-.2-.461a5.027 5.027 0 0 0-.61-1.022 2.374 2.374 0 0 0-.85-.761l-.137-.1a1.448 1.448 0 0 1-.254-.24 1.1 1.1 0 0 1-.176-.28q-.059-.14.1-.231a1.239 1.239 0 0 1 .566-.089l.39.06a2.821 2.821 0 0 1 .967.48 3.2 3.2 0 0 1 .947 1.041 3.5 3.5 0 0 0 1.084 1.251 2.261 2.261 0 0 0 1.279.43 5.422 5.422 0 0 0 1.113-.1 3.819 3.819 0 0 0 .879-.3 3.276 3.276 0 0 1 .957-2.062 13.079 13.079 0 0 1-2-.36 7.864 7.864 0 0 1-1.836-.781 5.291 5.291 0 0 1-1.572-1.341 6.509 6.509 0 0 1-1.025-2.1 10.23 10.23 0 0 1-.4-3 5.922 5.922 0 0 1 1.543-4.124 5.507 5.507 0 0 1 .137-4.084 2.677 2.677 0 0 1 1.68.27 11.613 11.613 0 0 1 1.631.771q.518.32.83.541a13.773 13.773 0 0 1 7.5 0l.742-.48a10.4 10.4 0 0 1 1.8-.881 2.5 2.5 0 0 1 1.583-.22 5.453 5.453 0 0 1 .156 4.084 5.923 5.923 0 0 1 1.536 4.117 10.345 10.345 0 0 1-.4 3.013 6.255 6.255 0 0 1-1.035 2.1 5.492 5.492 0 0 1-1.582 1.331 7.878 7.878 0 0 1-1.836.781 13.064 13.064 0 0 1-2 .361 3.615 3.615 0 0 1 1.015 2.843v4.224a.807.807 0 0 0 .244.6.832.832 0 0 0 .771.14 14.717 14.717 0 0 0 7.393-5.556A15.2 15.2 0 0 0 30 15.375a15.344 15.344 0 0 0-2.012-7.717z" fill="#fff"/></svg>